<svg xmlns="http://www.w3.org/2000/svg" width="16" height="16" viewBox="0 0 16 16">
    <g fill="none" fill-rule="nonzero">
        <path fill="#FFF" stroke="#CCC" d="M.5.5h15v15H.5z"/>
        <path fill="#3D6AFE" d="M3.115 8.4A.441.441 0 0 1 3 8.12c0-.08.038-.2.115-.28l.539-.56a.362.362 0 0 1 .538 0l.039.04 2.115 2.36c.077.08.192.08.27 0l5.153-5.56h.039a.362.362 0 0 1 .538 0l.539.56c.153.16.153.4 0 .56L6.73 11.88a.343.343 0 0 1-.27.12.343.343 0 0 1-.269-.12l-3-3.36-.077-.12z"/>
    </g>
</svg>
